# xmcd CD database file
#
# Track frame offsets:
#	150
#	20187
#	37700
#
# Disc length: 766 seconds
#
# Revision: 5
# Processed by: cddbd v1.5.2PL0 Copyright (c) Steve Scherf et al.
# Submitted via: CDex 1.70beta2
#
DISCID=1a02fc03
DTITLE=Richard Marx - Until I Find You Again SP
DYEAR=1997
DGENRE=Pop
TTITLE0=Until I Find You Again
TTITLE1=Silent Scream
TTITLE2=Right Here Waiting
EXTD=YEAR: 1997
EXTT0=
EXTT1=
EXTT2=
PLAYORDER=
